<svg width="136" height="97" viewBox="0 0 136 97" fill="none" xmlns="http://www.w3.org/2000/svg">
<g filter="url(#filter0_i_11_1762)">
<circle cx="68.1241" cy="48.5063" r="34.744" fill="#036B52"/>
</g>
<g style="mix-blend-mode:soft-light" filter="url(#filter1_if_11_1762)">
<circle cx="68.1241" cy="48.5062" r="31.1859" fill="#036B52"/>
<circle cx="68.1241" cy="48.5062" r="32.659" stroke="#2FC18C" stroke-width="2.94619"/>
</g>
<g filter="url(#filter2_di_11_1762)">
<circle cx="68.1241" cy="48.5062" r="28.4649" fill="url(#paint0_radial_11_1762)"/>
</g>
<g filter="url(#filter3_d_11_1762)">
<path d="M16.2829 51.8751C16.5483 49.958 18.0869 48.4689 20.0116 48.2664L118.036 37.9534C120.754 37.6674 123.02 40.0084 122.645 42.7162L120.05 61.4635C119.785 63.3806 118.246 64.8697 116.322 65.0722L18.2974 75.3852C15.5788 75.6712 13.3131 73.3302 13.6879 70.6224L16.2829 51.8751Z" fill="url(#paint1_linear_11_1762)"/>
</g>
<path d="M16.5223 49.8963L123.208 39.729L120.044 62.7864L13.3232 73.4859L16.5223 49.8963Z" fill="url(#paint2_linear_11_1762)"/>
<g style="mix-blend-mode:overlay" filter="url(#filter4_f_11_1762)">
<path d="M30.7174 56.3054L25.1211 56.8942L27.0549 54.9108L25.4555 70.0983L21.5869 70.5053L23.1863 55.3178L24.7407 56.9342L19.1552 57.5218L19.4768 54.5215L31.0281 53.3062L30.7174 56.3054Z" fill="white"/>
<path d="M31.2519 69.4885L32.9777 53.1011L39.7477 52.3888C41.2907 52.2265 42.4323 52.425 43.1723 52.9844C43.9116 53.5365 44.3346 54.3197 44.4413 55.3339C44.5038 55.928 44.4678 56.5251 44.3331 57.1252C44.1985 57.7254 43.9829 58.2864 43.6862 58.8084C43.3888 59.3231 43.0174 59.7614 42.572 60.1232C42.1339 60.4842 41.6382 60.7158 41.085 60.818C41.464 60.8001 41.8205 60.8468 42.1545 60.9582C42.4877 61.0623 42.7641 61.2529 42.9837 61.5301C43.2026 61.8001 43.3375 62.1778 43.3886 62.6632C43.413 62.895 43.413 63.1733 43.3885 63.4982C43.3714 63.8223 43.3387 64.1736 43.2907 64.5522C43.2499 64.9301 43.2054 65.3083 43.1574 65.6869C43.1093 66.0655 43.0734 66.4209 43.0498 66.753C43.0334 67.0843 43.0374 67.3659 43.0618 67.5977C43.0762 67.7354 43.0968 67.8614 43.1235 67.9758C43.1567 68.0822 43.1948 68.1661 43.2379 68.2274L39.3585 68.6356C39.2788 68.5048 39.2241 68.2982 39.1943 68.0156C39.1715 67.7983 39.1705 67.5457 39.1915 67.2578C39.2117 66.9627 39.2381 66.656 39.2705 66.3376C39.3094 66.0112 39.3487 65.6884 39.3884 65.3693C39.428 65.0502 39.4591 64.7539 39.4816 64.4805C39.5034 64.1999 39.5036 63.9582 39.4823 63.7553C39.4388 63.3424 39.2648 63.0457 38.9601 62.8654C38.662 62.677 38.2448 62.611 37.7088 62.6674L33.9489 63.063L35.8169 61.8117L35.0444 69.0895L31.2519 69.4885ZM35.9004 60.935L34.2596 60.0638L38.1499 59.6545C38.599 59.6073 39.0049 59.462 39.3675 59.2188C39.7366 58.9675 40.018 58.6486 40.2118 58.262C40.412 57.8674 40.4865 57.4274 40.4355 56.942C40.3859 56.4711 40.2107 56.094 39.9099 55.8107C39.6083 55.5201 39.1569 55.4065 38.5556 55.4697L34.7088 55.8745L36.6437 53.902L35.9004 60.935Z" fill="white"/>
<path d="M58.5169 50.4141L52.7015 61.6614L52.0858 67.2966L48.2281 67.7024L48.822 62.0695L45.2703 51.8078L49.2802 51.3859L51.604 59.8981L50.0609 60.0604L54.3114 50.8566L58.5169 50.4141Z" fill="white"/>
<path d="M71.5893 59.4325C71.3738 61.4914 70.6883 63.0871 69.533 64.2194C68.3776 65.3518 66.8944 66.0133 65.0833 66.2038C63.3518 66.386 61.9804 66.1604 60.9688 65.527C59.9566 64.8864 59.3746 63.8452 59.2229 62.4036C59.1711 61.911 59.1627 61.4138 59.1978 60.912C59.2322 60.403 59.294 59.7373 59.3832 58.9148L60.3365 50.2227L64.216 49.8145L63.2049 59.1061C63.1614 59.5281 63.1259 59.8871 63.0984 60.183C63.0782 60.4781 63.0654 60.7395 63.0601 60.9671C63.0612 61.1867 63.074 61.4124 63.0983 61.6443C63.1578 62.2093 63.3433 62.6147 63.6548 62.8602C63.9735 63.105 64.448 63.1943 65.0783 63.128C65.9042 63.0411 66.5201 62.7346 66.9262 62.2084C67.3396 61.6815 67.5966 60.922 67.6973 59.9299L68.8126 49.3309L72.692 48.9228L71.5893 59.4325Z" fill="white"/>
<path d="M77.2694 64.647L73.4878 65.0449L75.2136 48.6575L81.5272 47.9933L84.0263 62.6617L83.7706 62.8424L85.374 47.5885L89.1447 47.1918L87.4189 63.5792L81.0619 64.248L78.5576 49.6351L78.8676 49.4487L77.2694 64.647Z" fill="white"/>
<path d="M93.4597 49.7043L95.4009 47.6872L94.7005 54.3971L93.6122 53.5557L100.197 52.8629L99.877 55.8741L93.2917 56.5669L94.5969 55.3968L93.805 62.9073L89.9364 63.3144L91.6622 46.927L101.888 45.8511L101.577 48.8503L93.4597 49.7043Z" fill="white"/>
<path d="M108.739 61.6108C107.573 61.7335 106.493 61.5981 105.499 61.2046C104.512 60.803 103.696 60.1491 103.052 59.2427C102.406 58.3291 102.009 57.166 101.86 55.7533C101.713 54.3479 101.792 53.0174 102.1 51.7618C102.406 50.499 102.914 49.3689 103.622 48.3715C104.329 47.3668 105.214 46.5487 106.275 45.9169C107.343 45.2772 108.562 44.8853 109.931 44.7412C111.119 44.6162 112.203 44.7513 113.182 45.1463C114.167 45.5334 114.982 46.1765 115.626 47.0756C116.269 47.9674 116.665 49.1197 116.814 50.5324C116.96 51.9233 116.877 53.2542 116.564 54.525C116.257 55.7878 115.747 56.9292 115.034 57.9491C114.32 58.9617 113.433 59.7912 112.373 60.4374C111.313 61.0764 110.101 61.4675 108.739 61.6108ZM108.766 58.5207C109.599 58.433 110.298 58.1471 110.862 57.6629C111.426 57.1787 111.871 56.5715 112.198 55.8414C112.523 55.104 112.739 54.3084 112.847 53.4547C112.955 52.5938 112.964 51.7468 112.877 50.9137C112.789 50.0805 112.604 49.4335 112.321 48.9725C112.037 48.5043 111.685 48.1861 111.265 48.0179C110.85 47.8417 110.393 47.7799 109.894 47.8325C109.061 47.9202 108.361 48.1988 107.795 48.6686C107.229 49.131 106.781 49.7201 106.454 50.4357C106.126 51.1514 105.912 51.9321 105.81 52.7778C105.709 53.6235 105.703 54.4737 105.793 55.3286C105.927 56.6036 106.268 57.476 106.816 57.9458C107.37 58.4075 108.02 58.5992 108.766 58.5207Z" fill="white"/>
</g>
<path d="M31.7639 55.4681L26.1676 56.0569L28.1014 54.0735L26.502 69.261L22.6334 69.668L24.2328 54.4805L25.7872 56.0969L20.2017 56.6845L20.5233 53.6842L32.0746 52.4689L31.7639 55.4681Z" fill="url(#paint3_linear_11_1762)"/>
<path d="M32.2984 68.6512L34.0242 52.2638L40.7942 51.5515C42.3372 51.3892 43.4788 51.5877 44.2188 52.1471C44.9581 52.6992 45.3811 53.4824 45.4878 54.4967C45.5503 55.0907 45.5143 55.6878 45.3796 56.2879C45.245 56.8881 45.0294 57.4491 44.7327 57.9711C44.4353 58.4858 44.0639 58.9241 43.6185 59.2859C43.1804 59.6469 42.6847 59.8786 42.1314 59.9807C42.5104 59.9628 42.8669 60.0095 43.2009 60.1209C43.5342 60.225 43.8106 60.4157 44.0302 60.6929C44.2491 60.9628 44.384 61.3405 44.4351 61.8259C44.4595 62.0577 44.4595 62.336 44.435 62.6609C44.4179 62.985 44.3852 63.3363 44.3372 63.715C44.2964 64.0928 44.2519 64.471 44.2039 64.8497C44.1558 65.2283 44.1199 65.5836 44.0963 65.9157C44.0799 66.2471 44.0839 66.5286 44.1082 66.7605C44.1227 66.8981 44.1433 67.0241 44.17 67.1385C44.2032 67.2449 44.2413 67.3288 44.2844 67.3902L40.4049 67.7983C40.3253 67.6675 40.2706 67.4609 40.2408 67.1783C40.218 66.961 40.217 66.7084 40.238 66.4205C40.2582 66.1254 40.2846 65.8187 40.317 65.5003C40.3559 65.1739 40.3952 64.8512 40.4349 64.532C40.4745 64.2129 40.5056 63.9166 40.5281 63.6433C40.5499 63.3626 40.5501 63.1209 40.5287 62.9181C40.4853 62.5051 40.3113 62.2085 40.0066 62.0281C39.7085 61.8397 39.2913 61.7737 38.7552 61.8301L34.9954 62.2257L36.8634 60.9744L36.0909 68.2522L32.2984 68.6512ZM36.9469 60.0977L35.3061 59.2265L39.1964 58.8172C39.6455 58.77 40.0514 58.6247 40.414 58.3815C40.7831 58.1303 41.0645 57.8113 41.2582 57.4247C41.4584 57.0301 41.533 56.5901 41.4819 56.1047C41.4324 55.6338 41.2572 55.2567 40.9564 54.9734C40.6548 54.6828 40.2034 54.5692 39.6021 54.6325L35.7553 55.0372L37.6902 53.0647L36.9469 60.0977Z" fill="url(#paint4_linear_11_1762)"/>
<path d="M59.5634 49.5769L53.748 60.8241L53.1323 66.4593L49.2746 66.8652L49.8685 61.2323L46.3168 50.9705L50.3266 50.5486L52.6505 59.0608L51.1074 59.2231L55.3579 50.0193L59.5634 49.5769Z" fill="url(#paint5_linear_11_1762)"/>
<path d="M72.6358 58.5952C72.4203 60.6542 71.7348 62.2498 70.5795 63.3822C69.4241 64.5145 67.9409 65.176 66.1298 65.3665C64.3983 65.5487 63.0269 65.3231 62.0153 64.6897C61.0031 64.0491 60.4211 63.008 60.2694 61.5663C60.2176 61.0737 60.2092 60.5765 60.2443 60.0747C60.2787 59.5657 60.3405 58.9 60.4297 58.0775L61.383 49.3854L65.2625 48.9773L64.2514 58.2688C64.2079 58.6909 64.1724 59.0498 64.1449 59.3457C64.1247 59.6408 64.1119 59.9022 64.1066 60.1298C64.1077 60.3494 64.1204 60.5752 64.1448 60.807C64.2043 61.3721 64.3898 61.7774 64.7013 62.0229C65.02 62.2677 65.4945 62.357 66.1248 62.2907C66.9506 62.2038 67.5666 61.8973 67.9727 61.3711C68.3861 60.8442 68.6431 60.0847 68.7438 59.0926L69.8591 48.4937L73.7385 48.0855L72.6358 58.5952Z" fill="url(#paint6_linear_11_1762)"/>
<path d="M78.3159 63.8098L74.5343 64.2076L76.2601 47.8202L82.5737 47.156L85.0728 61.8244L84.8171 62.0051L86.4205 46.7513L90.1912 46.3545L88.4654 62.7419L82.1084 63.4108L79.6041 48.7978L79.9141 48.6114L78.3159 63.8098Z" fill="url(#paint7_linear_11_1762)"/>
<path d="M94.5062 48.8671L96.4474 46.85L95.747 53.5598L94.6587 52.7184L101.244 52.0256L100.923 55.0368L94.3382 55.7296L95.6434 54.5595L94.8515 62.0701L90.9829 62.4771L92.7087 46.0897L102.934 45.0138L102.624 48.013L94.5062 48.8671Z" fill="url(#paint8_linear_11_1762)"/>
<path d="M109.786 60.7735C108.619 60.8962 107.539 60.7608 106.546 60.3673C105.559 59.9657 104.743 59.3118 104.098 58.4054C103.453 57.4918 103.056 56.3287 102.907 54.916C102.759 53.5106 102.839 52.1801 103.146 50.9245C103.453 49.6617 103.96 48.5316 104.668 47.5342C105.376 46.5296 106.26 45.7114 107.322 45.0796C108.39 44.4399 109.608 44.048 110.977 43.904C112.166 43.779 113.249 43.914 114.228 44.3091C115.214 44.6961 116.029 45.3392 116.673 46.2383C117.316 47.1302 117.712 48.2824 117.86 49.6951C118.007 51.086 117.923 52.4169 117.61 53.6877C117.304 54.9505 116.794 56.0919 116.081 57.1118C115.367 58.1245 114.48 58.9539 113.42 59.6001C112.359 60.2391 111.148 60.6302 109.786 60.7735ZM109.812 57.6834C110.645 57.5957 111.344 57.3098 111.908 56.8256C112.473 56.3414 112.918 55.7342 113.244 55.0041C113.569 54.2667 113.786 53.4711 113.894 52.6175C114.001 51.7565 114.011 50.9095 113.923 50.0764C113.835 49.2433 113.65 48.5962 113.367 48.1352C113.084 47.667 112.732 47.3488 112.311 47.1806C111.897 47.0044 111.44 46.9426 110.94 46.9952C110.107 47.0829 109.408 47.3616 108.842 47.8313C108.275 48.2937 107.828 48.8828 107.5 49.5985C107.173 50.3141 106.958 51.0948 106.857 51.9405C106.755 52.7862 106.75 53.6364 106.84 54.4913C106.974 55.7663 107.315 56.6387 107.862 57.1085C108.416 57.5703 109.066 57.7619 109.812 57.6834Z" fill="url(#paint9_linear_11_1762)"/>
<path d="M70.7553 31.395L73.3708 35.958C73.5192 36.2148 73.7479 36.3221 73.991 36.3221C74.3546 36.3221 74.7326 36.0519 74.7326 35.5929L74.746 26.4679C74.746 26.009 74.3824 25.7253 74.0178 25.7253C73.7747 25.7253 73.5326 25.847 73.3842 26.1038L70.7553 30.6533C70.6883 30.7616 70.6606 30.8958 70.6606 31.0175C70.6606 31.1526 70.6874 31.2742 70.7553 31.395Z" fill="#2FC18C"/>
<path d="M68.046 32.9473L70.6749 37.4968C70.7428 37.6185 70.783 37.7536 70.783 37.8744C70.783 38.2663 70.4328 38.6036 70.0414 38.6036C69.9199 38.6036 69.7983 38.5767 69.6777 38.5087L61.791 33.9324C61.5345 33.7838 61.4273 33.5405 61.4273 33.3114C61.4273 32.9339 61.7106 32.5554 62.169 32.5554L67.4134 32.5823C67.6832 32.5823 67.9254 32.7174 68.0469 32.9464" fill="#2FC18C"/>
<path d="M67.3991 29.4105H62.1547C61.6963 29.4105 61.4265 29.0464 61.4265 28.6814C61.4265 28.438 61.5346 28.1955 61.7902 28.047L69.6902 23.4984C69.8118 23.4313 69.9467 23.3901 70.0682 23.3901C70.4596 23.3901 70.7965 23.7274 70.7965 24.1327C70.7965 24.2544 70.7563 24.3761 70.6884 24.4969L68.0327 29.0464C67.8977 29.2763 67.669 29.4105 67.3991 29.4105Z" fill="#2FC18C"/>
<defs>
<filter id="filter0_i_11_1762" x="33.3801" y="13.7623" width="69.488" height="71.1715" filterUnits="userSpaceOnUse" color-interpolation-filters="sRGB">
<feFlood flood-opacity="0" result="BackgroundImageFix"/>
<feBlend mode="normal" in="SourceGraphic" in2="BackgroundImageFix" result="shape"/>
<feColorMatrix in="SourceAlpha" type="matrix" values="0 0 0 0 0 0 0 0 0 0 0 0 0 0 0 0 0 0 127 0" result="hardAlpha"/>
<feOffset dy="1.68354"/>
<feGaussianBlur stdDeviation="0.841768"/>
<feComposite in2="hardAlpha" operator="arithmetic" k2="-1" k3="1"/>
<feColorMatrix type="matrix" values="0 0 0 0 0.184314 0 0 0 0 0.756863 0 0 0 0 0.54902 0 0 0 1 0"/>
<feBlend mode="normal" in2="shape" result="effect1_innerShadow_11_1762"/>
</filter>
<filter id="filter1_if_11_1762" x="30.625" y="11.0071" width="74.9982" height="74.9982" filterUnits="userSpaceOnUse" color-interpolation-filters="sRGB">
<feFlood flood-opacity="0" result="BackgroundImageFix"/>
<feBlend mode="normal" in="SourceGraphic" in2="BackgroundImageFix" result="shape"/>
<feColorMatrix in="SourceAlpha" type="matrix" values="0 0 0 0 0 0 0 0 0 0 0 0 0 0 0 0 0 0 127 0" result="hardAlpha"/>
<feOffset/>
<feGaussianBlur stdDeviation="3.78796"/>
<feComposite in2="hardAlpha" operator="arithmetic" k2="-1" k3="1"/>
<feColorMatrix type="matrix" values="0 0 0 0 0 0 0 0 0 0 0 0 0 0 0 0 0 0 0.25 0"/>
<feBlend mode="normal" in2="shape" result="effect1_innerShadow_11_1762"/>
<feGaussianBlur stdDeviation="1.68354" result="effect2_foregroundBlur_11_1762"/>
</filter>
<filter id="filter2_di_11_1762" x="20.2985" y="0.680592" width="95.6512" height="95.6513" filterUnits="userSpaceOnUse" color-interpolation-filters="sRGB">
<feFlood flood-opacity="0" result="BackgroundImageFix"/>
<feColorMatrix in="SourceAlpha" type="matrix" values="0 0 0 0 0 0 0 0 0 0 0 0 0 0 0 0 0 0 127 0" result="hardAlpha"/>
<feOffset/>
<feGaussianBlur stdDeviation="9.68033"/>
<feComposite in2="hardAlpha" operator="out"/>
<feColorMatrix type="matrix" values="0 0 0 0 0 0 0 0 0 0 0 0 0 0 0 0 0 0 1 0"/>
<feBlend mode="normal" in2="BackgroundImageFix" result="effect1_dropShadow_11_1762"/>
<feBlend mode="normal" in="SourceGraphic" in2="effect1_dropShadow_11_1762" result="shape"/>
<feColorMatrix in="SourceAlpha" type="matrix" values="0 0 0 0 0 0 0 0 0 0 0 0 0 0 0 0 0 0 127 0" result="hardAlpha"/>
<feOffset/>
<feGaussianBlur stdDeviation="3.78796"/>
<feComposite in2="hardAlpha" operator="arithmetic" k2="-1" k3="1"/>
<feColorMatrix type="matrix" values="0 0 0 0 0 0 0 0 0 0 0 0 0 0 0 0 0 0 0.25 0"/>
<feBlend mode="normal" in2="shape" result="effect2_innerShadow_11_1762"/>
</filter>
<filter id="filter3_d_11_1762" x="0.599779" y="26.9867" width="135.134" height="63.5741" filterUnits="userSpaceOnUse" color-interpolation-filters="sRGB">
<feFlood flood-opacity="0" result="BackgroundImageFix"/>
<feColorMatrix in="SourceAlpha" type="matrix" values="0 0 0 0 0 0 0 0 0 0 0 0 0 0 0 0 0 0 127 0" result="hardAlpha"/>
<feOffset dy="2.10442"/>
<feGaussianBlur stdDeviation="6.5237"/>
<feComposite in2="hardAlpha" operator="out"/>
<feColorMatrix type="matrix" values="0 0 0 0 0 0 0 0 0 0 0 0 0 0 0 0 0 0 0.7 0"/>
<feBlend mode="normal" in2="BackgroundImageFix" result="effect1_dropShadow_11_1762"/>
<feBlend mode="normal" in="SourceGraphic" in2="effect1_dropShadow_11_1762" result="shape"/>
</filter>
<filter id="filter4_f_11_1762" x="17.0508" y="42.5917" width="101.937" height="30.018" filterUnits="userSpaceOnUse" color-interpolation-filters="sRGB">
<feFlood flood-opacity="0" result="BackgroundImageFix"/>
<feBlend mode="normal" in="SourceGraphic" in2="BackgroundImageFix" result="shape"/>
<feGaussianBlur stdDeviation="1.05221" result="effect1_foregroundBlur_11_1762"/>
</filter>
<radialGradient id="paint0_radial_11_1762" cx="0" cy="0" r="1" gradientUnits="userSpaceOnUse" gradientTransform="translate(70.845 64.3084) rotate(-106.227) scale(43.8151)">
<stop offset="0.0313437" stop-color="#002D22"/>
<stop offset="0.934697" stop-color="#036B52"/>
</radialGradient>
<linearGradient id="paint1_linear_11_1762" x1="77.5942" y1="59.3604" x2="78.3729" y2="69.0632" gradientUnits="userSpaceOnUse">
<stop stop-color="#2FC18C"/>
<stop offset="0.544413" stop-color="#4BF8B9"/>
</linearGradient>
<linearGradient id="paint2_linear_11_1762" x1="75.6556" y1="44.0977" x2="78.5931" y2="67.0299" gradientUnits="userSpaceOnUse">
<stop stop-color="#4BF8B9"/>
<stop offset="0.447917" stop-color="#2FC18C"/>
</linearGradient>
<linearGradient id="paint3_linear_11_1762" x1="67.4799" y1="47.6924" x2="69.8231" y2="69.9647" gradientUnits="userSpaceOnUse">
<stop stop-color="#036B52"/>
<stop offset="0.493703" stop-color="#001A13"/>
</linearGradient>
<linearGradient id="paint4_linear_11_1762" x1="67.4799" y1="47.6924" x2="69.8231" y2="69.9647" gradientUnits="userSpaceOnUse">
<stop stop-color="#036B52"/>
<stop offset="0.493703" stop-color="#001A13"/>
</linearGradient>
<linearGradient id="paint5_linear_11_1762" x1="67.4799" y1="47.6924" x2="69.8231" y2="69.9647" gradientUnits="userSpaceOnUse">
<stop stop-color="#036B52"/>
<stop offset="0.493703" stop-color="#001A13"/>
</linearGradient>
<linearGradient id="paint6_linear_11_1762" x1="67.4799" y1="47.6924" x2="69.8231" y2="69.9647" gradientUnits="userSpaceOnUse">
<stop stop-color="#036B52"/>
<stop offset="0.493703" stop-color="#001A13"/>
</linearGradient>
<linearGradient id="paint7_linear_11_1762" x1="67.4799" y1="47.6924" x2="69.8231" y2="69.9647" gradientUnits="userSpaceOnUse">
<stop stop-color="#036B52"/>
<stop offset="0.493703" stop-color="#001A13"/>
</linearGradient>
<linearGradient id="paint8_linear_11_1762" x1="67.4799" y1="47.6924" x2="69.8231" y2="69.9647" gradientUnits="userSpaceOnUse">
<stop stop-color="#036B52"/>
<stop offset="0.493703" stop-color="#001A13"/>
</linearGradient>
<linearGradient id="paint9_linear_11_1762" x1="67.4799" y1="47.6924" x2="69.8231" y2="69.9647" gradientUnits="userSpaceOnUse">
<stop stop-color="#036B52"/>
<stop offset="0.493703" stop-color="#001A13"/>
</linearGradient>
</defs>
</svg>
