<svg width="416" height="597" viewBox="0 0 416 597" fill="none" xmlns="http://www.w3.org/2000/svg">
<g filter="url(#filter0_d_11_1618)">
<rect x="24" y="20" width="368" height="549" rx="10" fill="white"/>
</g>
<rect x="34" y="30" width="348" height="529" rx="10" fill="#023031"/>
<g filter="url(#filter1_i_11_1618)">
<circle cx="207.799" cy="294.559" r="100.559" fill="#036B52"/>
</g>
<g style="mix-blend-mode:soft-light" filter="url(#filter2_if_11_1618)">
<circle cx="207.799" cy="294.559" r="90.2604" fill="#036B52"/>
<circle cx="207.799" cy="294.559" r="95.645" stroke="#2FC18C" stroke-width="10.7692"/>
</g>
<g filter="url(#filter3_di_11_1618)">
<circle cx="207.799" cy="294.559" r="82.3853" fill="url(#paint0_radial_11_1618)"/>
</g>
<g filter="url(#filter4_d_11_1618)">
<path d="M57.4133 306.793C58.3833 299.785 64.0073 294.342 71.0429 293.602L355.029 263.724C361.488 263.045 366.871 268.607 365.981 275.041L358.432 329.577C357.462 336.584 351.838 342.027 344.802 342.767L60.8163 372.645C54.357 373.325 48.9739 367.763 49.8644 361.329L57.4133 306.793Z" fill="url(#paint1_linear_11_1618)"/>
</g>
<path d="M57.8155 306.039L365.5 276.5L358.5 329L49.5 362L57.8155 306.039Z" fill="url(#paint2_linear_11_1618)"/>
<g style="mix-blend-mode:overlay" filter="url(#filter5_f_11_1618)">
<path d="M99.5345 315.547L83.3371 317.252L88.934 311.511L84.305 355.468L73.1084 356.646L77.7374 312.689L82.2363 317.367L66.0703 319.068L67.0011 310.384L100.434 306.867L99.5345 315.547Z" fill="white"/>
<path d="M101.081 353.703L106.076 306.273L125.67 304.212C130.137 303.742 133.44 304.317 135.582 305.936C137.722 307.534 138.946 309.8 139.255 312.736C139.436 314.455 139.332 316.183 138.942 317.92C138.552 319.657 137.928 321.281 137.07 322.792C136.209 324.282 135.134 325.55 133.845 326.597C132.577 327.642 131.142 328.313 129.541 328.608C130.638 328.556 131.67 328.692 132.636 329.014C133.601 329.315 134.401 329.867 135.036 330.669C135.67 331.451 136.06 332.544 136.208 333.949C136.279 334.62 136.279 335.425 136.208 336.365C136.158 337.303 136.064 338.32 135.925 339.416C135.807 340.51 135.678 341.604 135.539 342.7C135.4 343.796 135.296 344.825 135.228 345.786C135.18 346.745 135.192 347.56 135.262 348.231C135.304 348.629 135.364 348.994 135.441 349.325C135.537 349.633 135.647 349.876 135.772 350.053L124.544 351.234C124.313 350.856 124.155 350.258 124.069 349.44C124.003 348.811 124 348.08 124.061 347.247C124.119 346.393 124.196 345.505 124.289 344.583C124.402 343.639 124.516 342.705 124.631 341.781C124.745 340.857 124.835 340 124.9 339.209C124.963 338.396 124.964 337.697 124.902 337.11C124.777 335.915 124.273 335.056 123.391 334.534C122.528 333.989 121.321 333.798 119.769 333.961L108.887 335.106L114.294 331.484L112.058 352.548L101.081 353.703ZM114.535 328.947L109.786 326.425L121.046 325.241C122.346 325.104 123.521 324.684 124.57 323.98C125.639 323.252 126.453 322.329 127.014 321.21C127.593 320.068 127.809 318.795 127.661 317.39C127.518 316.027 127.011 314.936 126.14 314.116C125.267 313.275 123.961 312.946 122.22 313.129L111.087 314.3L116.687 308.591L114.535 328.947Z" fill="white"/>
<path d="M179.994 298.497L163.162 331.049L161.38 347.359L150.215 348.534L151.934 332.231L141.655 302.53L153.26 301.309L159.986 325.946L155.52 326.416L167.822 299.777L179.994 298.497Z" fill="white"/>
<path d="M217.829 324.598C217.205 330.557 215.221 335.176 211.877 338.453C208.533 341.73 204.24 343.645 198.999 344.196C193.987 344.723 190.018 344.07 187.09 342.237C184.16 340.383 182.476 337.37 182.037 333.197C181.887 331.772 181.863 330.333 181.964 328.88C182.064 327.407 182.243 325.48 182.501 323.1L185.26 297.943L196.488 296.761L193.562 323.653C193.436 324.875 193.333 325.914 193.254 326.77C193.195 327.624 193.158 328.381 193.143 329.04C193.146 329.675 193.183 330.329 193.254 331C193.426 332.635 193.963 333.808 194.864 334.519C195.787 335.228 197.16 335.486 198.984 335.294C201.374 335.042 203.157 334.155 204.333 332.632C205.529 331.107 206.273 328.909 206.564 326.038L209.792 295.362L221.02 294.18L217.829 324.598Z" fill="white"/>
<path d="M234.268 339.691L223.323 340.842L228.318 293.412L246.592 291.49L253.825 333.944L253.085 334.467L257.725 290.319L268.639 289.17L263.644 336.6L245.245 338.536L237.997 296.242L238.894 295.702L234.268 339.691Z" fill="white"/>
<path d="M281.128 296.442L286.746 290.604L284.719 310.024L281.569 307.589L300.628 305.584L299.701 314.299L280.641 316.304L284.419 312.918L282.127 334.655L270.93 335.833L275.925 288.404L305.521 285.29L304.622 293.97L281.128 296.442Z" fill="white"/>
<path d="M325.351 330.903C321.975 331.258 318.849 330.866 315.974 329.727C313.117 328.565 310.755 326.672 308.889 324.049C307.021 321.405 305.872 318.038 305.442 313.95C305.014 309.882 305.245 306.031 306.134 302.397C307.022 298.742 308.49 295.471 310.54 292.585C312.587 289.677 315.147 287.309 318.219 285.48C321.31 283.629 324.837 282.495 328.8 282.078C332.239 281.716 335.375 282.107 338.209 283.25C341.061 284.37 343.42 286.232 345.283 288.834C347.145 291.415 348.291 294.75 348.721 298.839C349.144 302.865 348.903 306.717 347.997 310.395C347.109 314.05 345.634 317.353 343.57 320.305C341.504 323.236 338.937 325.636 335.869 327.507C332.799 329.356 329.293 330.488 325.351 330.903ZM325.428 321.959C327.839 321.705 329.861 320.878 331.494 319.476C333.128 318.075 334.416 316.318 335.36 314.204C336.301 312.07 336.928 309.768 337.241 307.297C337.551 304.805 337.579 302.354 337.326 299.942C337.072 297.531 336.536 295.658 335.717 294.324C334.896 292.969 333.877 292.048 332.66 291.561C331.461 291.051 330.139 290.872 328.692 291.025C326.281 291.278 324.256 292.085 322.618 293.444C320.978 294.783 319.684 296.488 318.736 298.559C317.788 300.63 317.167 302.89 316.874 305.338C316.58 307.785 316.563 310.246 316.824 312.72C317.212 316.411 318.198 318.936 319.783 320.295C321.386 321.632 323.268 322.186 325.428 321.959Z" fill="white"/>
</g>
<path d="M102.563 313.124L86.3659 314.828L91.9629 309.088L87.3339 353.045L76.1372 354.223L80.7662 310.266L85.2651 314.944L69.0992 316.645L70.03 307.961L103.463 304.444L102.563 313.124Z" fill="url(#paint3_linear_11_1618)"/>
<path d="M104.11 351.28L109.105 303.85L128.699 301.789C133.165 301.319 136.469 301.893 138.611 303.513C140.751 305.111 141.975 307.377 142.284 310.313C142.465 312.032 142.361 313.76 141.971 315.497C141.581 317.234 140.957 318.858 140.098 320.369C139.238 321.858 138.163 323.127 136.874 324.174C135.606 325.219 134.171 325.889 132.57 326.185C133.667 326.133 134.699 326.269 135.665 326.591C136.63 326.892 137.43 327.444 138.065 328.246C138.699 329.028 139.089 330.121 139.237 331.526C139.308 332.196 139.308 333.002 139.237 333.942C139.187 334.88 139.093 335.897 138.954 336.993C138.836 338.087 138.707 339.181 138.568 340.277C138.429 341.373 138.325 342.401 138.257 343.363C138.209 344.322 138.221 345.137 138.291 345.808C138.333 346.206 138.393 346.571 138.47 346.902C138.566 347.21 138.676 347.452 138.801 347.63L127.573 348.811C127.342 348.433 127.184 347.835 127.098 347.017C127.032 346.388 127.029 345.657 127.09 344.824C127.148 343.97 127.224 343.082 127.318 342.16C127.431 341.216 127.545 340.282 127.659 339.358C127.774 338.434 127.864 337.577 127.929 336.786C127.992 335.973 127.993 335.274 127.931 334.687C127.805 333.491 127.302 332.633 126.42 332.111C125.557 331.566 124.35 331.375 122.798 331.538L111.916 332.683L117.322 329.061L115.087 350.125L104.11 351.28ZM117.564 326.524L112.815 324.002L124.075 322.818C125.375 322.681 126.55 322.261 127.599 321.557C128.667 320.829 129.482 319.906 130.043 318.787C130.622 317.645 130.838 316.372 130.69 314.967C130.547 313.604 130.04 312.513 129.169 311.693C128.296 310.852 126.989 310.523 125.249 310.706L114.115 311.877L119.716 306.168L117.564 326.524Z" fill="url(#paint4_linear_11_1618)"/>
<path d="M183.022 296.074L166.191 328.626L164.409 344.936L153.244 346.111L154.963 329.807L144.683 300.107L156.289 298.886L163.015 323.523L158.549 323.992L170.851 297.354L183.022 296.074Z" fill="url(#paint5_linear_11_1618)"/>
<path d="M220.858 322.175C220.234 328.134 218.25 332.752 214.906 336.03C211.562 339.307 207.269 341.222 202.027 341.773C197.016 342.3 193.047 341.647 190.119 339.814C187.189 337.96 185.505 334.947 185.066 330.774C184.916 329.348 184.892 327.909 184.993 326.457C185.093 324.984 185.272 323.057 185.53 320.677L188.289 295.519L199.517 294.338L196.591 321.23C196.465 322.452 196.362 323.491 196.283 324.347C196.224 325.201 196.187 325.958 196.172 326.617C196.175 327.252 196.212 327.906 196.283 328.577C196.455 330.212 196.991 331.385 197.893 332.096C198.815 332.804 200.189 333.063 202.013 332.871C204.403 332.619 206.186 331.732 207.361 330.209C208.558 328.684 209.302 326.486 209.593 323.615L212.821 292.938L224.049 291.757L220.858 322.175Z" fill="url(#paint6_linear_11_1618)"/>
<path d="M237.297 337.267L226.352 338.419L231.347 290.989L249.621 289.067L256.854 331.521L256.114 332.044L260.754 287.895L271.668 286.747L266.673 334.177L248.274 336.113L241.026 293.819L241.923 293.279L237.297 337.267Z" fill="url(#paint7_linear_11_1618)"/>
<path d="M284.156 294.019L289.775 288.181L287.748 307.601L284.598 305.166L303.657 303.161L302.73 311.876L283.67 313.881L287.448 310.495L285.156 332.232L273.959 333.41L278.954 285.981L308.55 282.867L307.651 291.547L284.156 294.019Z" fill="url(#paint8_linear_11_1618)"/>
<path d="M328.38 328.48C325.004 328.835 321.878 328.443 319.003 327.304C316.146 326.142 313.784 324.249 311.918 321.626C310.05 318.982 308.901 315.615 308.471 311.527C308.043 307.459 308.273 303.608 309.163 299.974C310.051 296.319 311.519 293.048 313.568 290.162C315.616 287.254 318.175 284.886 321.248 283.057C324.339 281.206 327.866 280.072 331.829 279.655C335.268 279.293 338.404 279.684 341.238 280.827C344.09 281.947 346.448 283.809 348.312 286.411C350.174 288.992 351.32 292.327 351.75 296.416C352.173 300.442 351.932 304.293 351.026 307.972C350.138 311.626 348.663 314.93 346.599 317.882C344.533 320.813 341.966 323.213 338.898 325.084C335.828 326.933 332.322 328.065 328.38 328.48ZM328.456 319.536C330.868 319.282 332.89 318.455 334.523 317.053C336.157 315.652 337.445 313.895 338.389 311.781C339.33 309.647 339.957 307.345 340.27 304.874C340.58 302.382 340.608 299.931 340.354 297.519C340.101 295.108 339.565 293.235 338.746 291.901C337.925 290.546 336.906 289.625 335.689 289.138C334.49 288.628 333.168 288.449 331.721 288.602C329.309 288.855 327.285 289.662 325.647 291.021C324.007 292.36 322.713 294.065 321.765 296.136C320.817 298.207 320.196 300.467 319.903 302.915C319.609 305.362 319.592 307.823 319.853 310.297C320.241 313.988 321.227 316.512 322.812 317.872C324.415 319.209 326.297 319.763 328.456 319.536Z" fill="url(#paint9_linear_11_1618)"/>
<path d="M215.415 245.034L222.985 258.24C223.414 258.983 224.076 259.294 224.78 259.294C225.832 259.294 226.926 258.512 226.926 257.184L226.965 230.774C226.965 229.445 225.913 228.624 224.857 228.624C224.154 228.624 223.453 228.976 223.024 229.72L215.415 242.887C215.221 243.201 215.141 243.589 215.141 243.941C215.141 244.332 215.218 244.684 215.415 245.034Z" fill="#2FC18C"/>
<path d="M207.574 249.527L215.182 262.694C215.379 263.047 215.495 263.438 215.495 263.787C215.495 264.921 214.481 265.898 213.349 265.898C212.997 265.898 212.645 265.82 212.296 265.623L189.47 252.378C188.728 251.948 188.417 251.244 188.417 250.581C188.417 249.488 189.237 248.393 190.564 248.393L205.743 248.47C206.524 248.47 207.224 248.861 207.576 249.524" fill="#2FC18C"/>
<path d="M205.701 239.29H190.523C189.196 239.29 188.415 238.236 188.415 237.18C188.415 236.476 188.728 235.774 189.467 235.344L212.332 222.179C212.684 221.985 213.075 221.866 213.426 221.866C214.559 221.866 215.534 222.842 215.534 224.015C215.534 224.367 215.418 224.719 215.221 225.069L207.535 238.236C207.144 238.902 206.482 239.29 205.701 239.29Z" fill="#2FC18C"/>
<defs>
<filter id="filter0_d_11_1618" x="0" y="0" width="416" height="597" filterUnits="userSpaceOnUse" color-interpolation-filters="sRGB">
<feFlood flood-opacity="0" result="BackgroundImageFix"/>
<feColorMatrix in="SourceAlpha" type="matrix" values="0 0 0 0 0 0 0 0 0 0 0 0 0 0 0 0 0 0 127 0" result="hardAlpha"/>
<feOffset dy="4"/>
<feGaussianBlur stdDeviation="12"/>
<feComposite in2="hardAlpha" operator="out"/>
<feColorMatrix type="matrix" values="0 0 0 0 0 0 0 0 0 0 0 0 0 0 0 0 0 0 0.25 0"/>
<feBlend mode="normal" in2="BackgroundImageFix" result="effect1_dropShadow_11_1618"/>
<feBlend mode="normal" in="SourceGraphic" in2="effect1_dropShadow_11_1618" result="shape"/>
</filter>
<filter id="filter1_i_11_1618" x="107.241" y="194" width="201.117" height="207.271" filterUnits="userSpaceOnUse" color-interpolation-filters="sRGB">
<feFlood flood-opacity="0" result="BackgroundImageFix"/>
<feBlend mode="normal" in="SourceGraphic" in2="BackgroundImageFix" result="shape"/>
<feColorMatrix in="SourceAlpha" type="matrix" values="0 0 0 0 0 0 0 0 0 0 0 0 0 0 0 0 0 0 127 0" result="hardAlpha"/>
<feOffset dy="6.15385"/>
<feGaussianBlur stdDeviation="3.07692"/>
<feComposite in2="hardAlpha" operator="arithmetic" k2="-1" k3="1"/>
<feColorMatrix type="matrix" values="0 0 0 0 0.184314 0 0 0 0 0.756863 0 0 0 0 0.54902 0 0 0 1 0"/>
<feBlend mode="normal" in2="shape" result="effect1_innerShadow_11_1618"/>
</filter>
<filter id="filter2_if_11_1618" x="94.4622" y="181.221" width="226.675" height="226.675" filterUnits="userSpaceOnUse" color-interpolation-filters="sRGB">
<feFlood flood-opacity="0" result="BackgroundImageFix"/>
<feBlend mode="normal" in="SourceGraphic" in2="BackgroundImageFix" result="shape"/>
<feColorMatrix in="SourceAlpha" type="matrix" values="0 0 0 0 0 0 0 0 0 0 0 0 0 0 0 0 0 0 127 0" result="hardAlpha"/>
<feOffset/>
<feGaussianBlur stdDeviation="13.8462"/>
<feComposite in2="hardAlpha" operator="arithmetic" k2="-1" k3="1"/>
<feColorMatrix type="matrix" values="0 0 0 0 0 0 0 0 0 0 0 0 0 0 0 0 0 0 0.25 0"/>
<feBlend mode="normal" in2="shape" result="effect1_innerShadow_11_1618"/>
<feGaussianBlur stdDeviation="6.15385" result="effect2_foregroundBlur_11_1618"/>
</filter>
<filter id="filter3_di_11_1618" x="54.6449" y="141.404" width="306.309" height="306.309" filterUnits="userSpaceOnUse" color-interpolation-filters="sRGB">
<feFlood flood-opacity="0" result="BackgroundImageFix"/>
<feColorMatrix in="SourceAlpha" type="matrix" values="0 0 0 0 0 0 0 0 0 0 0 0 0 0 0 0 0 0 127 0" result="hardAlpha"/>
<feOffset/>
<feGaussianBlur stdDeviation="35.3846"/>
<feComposite in2="hardAlpha" operator="out"/>
<feColorMatrix type="matrix" values="0 0 0 0 0 0 0 0 0 0 0 0 0 0 0 0 0 0 1 0"/>
<feBlend mode="normal" in2="BackgroundImageFix" result="effect1_dropShadow_11_1618"/>
<feBlend mode="normal" in="SourceGraphic" in2="effect1_dropShadow_11_1618" result="shape"/>
<feColorMatrix in="SourceAlpha" type="matrix" values="0 0 0 0 0 0 0 0 0 0 0 0 0 0 0 0 0 0 127 0" result="hardAlpha"/>
<feOffset/>
<feGaussianBlur stdDeviation="13.8462"/>
<feComposite in2="hardAlpha" operator="arithmetic" k2="-1" k3="1"/>
<feColorMatrix type="matrix" values="0 0 0 0 0 0 0 0 0 0 0 0 0 0 0 0 0 0 0.25 0"/>
<feBlend mode="normal" in2="shape" result="effect2_innerShadow_11_1618"/>
</filter>
<filter id="filter4_d_11_1618" x="2.07536" y="223.668" width="411.695" height="204.418" filterUnits="userSpaceOnUse" color-interpolation-filters="sRGB">
<feFlood flood-opacity="0" result="BackgroundImageFix"/>
<feColorMatrix in="SourceAlpha" type="matrix" values="0 0 0 0 0 0 0 0 0 0 0 0 0 0 0 0 0 0 127 0" result="hardAlpha"/>
<feOffset dy="7.69231"/>
<feGaussianBlur stdDeviation="23.8462"/>
<feComposite in2="hardAlpha" operator="out"/>
<feColorMatrix type="matrix" values="0 0 0 0 0 0 0 0 0 0 0 0 0 0 0 0 0 0 0.7 0"/>
<feBlend mode="normal" in2="BackgroundImageFix" result="effect1_dropShadow_11_1618"/>
<feBlend mode="normal" in="SourceGraphic" in2="effect1_dropShadow_11_1618" result="shape"/>
</filter>
<filter id="filter5_f_11_1618" x="58.378" y="274.255" width="298.238" height="90.0833" filterUnits="userSpaceOnUse" color-interpolation-filters="sRGB">
<feFlood flood-opacity="0" result="BackgroundImageFix"/>
<feBlend mode="normal" in="SourceGraphic" in2="BackgroundImageFix" result="shape"/>
<feGaussianBlur stdDeviation="3.84615" result="effect1_foregroundBlur_11_1618"/>
</filter>
<radialGradient id="paint0_radial_11_1618" cx="0" cy="0" r="1" gradientUnits="userSpaceOnUse" gradientTransform="translate(215.675 340.295) rotate(-106.227) scale(126.813)">
<stop offset="0.0313437" stop-color="#002D22"/>
<stop offset="0.934697" stop-color="#036B52"/>
</radialGradient>
<linearGradient id="paint1_linear_11_1618" x1="235.209" y1="325.974" x2="237.462" y2="354.056" gradientUnits="userSpaceOnUse">
<stop stop-color="#2FC18C"/>
<stop offset="0.544413" stop-color="#4BF8B9"/>
</linearGradient>
<linearGradient id="paint2_linear_11_1618" x1="229.634" y1="286.243" x2="236.9" y2="344.231" gradientUnits="userSpaceOnUse">
<stop stop-color="#4BF8B9"/>
<stop offset="0.447917" stop-color="#2FC18C"/>
</linearGradient>
<linearGradient id="paint3_linear_11_1618" x1="205.935" y1="290.619" x2="212.717" y2="355.081" gradientUnits="userSpaceOnUse">
<stop stop-color="#036B52"/>
<stop offset="0.493703" stop-color="#001A13"/>
</linearGradient>
<linearGradient id="paint4_linear_11_1618" x1="205.935" y1="290.619" x2="212.717" y2="355.081" gradientUnits="userSpaceOnUse">
<stop stop-color="#036B52"/>
<stop offset="0.493703" stop-color="#001A13"/>
</linearGradient>
<linearGradient id="paint5_linear_11_1618" x1="205.935" y1="290.619" x2="212.717" y2="355.081" gradientUnits="userSpaceOnUse">
<stop stop-color="#036B52"/>
<stop offset="0.493703" stop-color="#001A13"/>
</linearGradient>
<linearGradient id="paint6_linear_11_1618" x1="205.935" y1="290.619" x2="212.717" y2="355.081" gradientUnits="userSpaceOnUse">
<stop stop-color="#036B52"/>
<stop offset="0.493703" stop-color="#001A13"/>
</linearGradient>
<linearGradient id="paint7_linear_11_1618" x1="205.935" y1="290.619" x2="212.717" y2="355.081" gradientUnits="userSpaceOnUse">
<stop stop-color="#036B52"/>
<stop offset="0.493703" stop-color="#001A13"/>
</linearGradient>
<linearGradient id="paint8_linear_11_1618" x1="205.935" y1="290.619" x2="212.717" y2="355.081" gradientUnits="userSpaceOnUse">
<stop stop-color="#036B52"/>
<stop offset="0.493703" stop-color="#001A13"/>
</linearGradient>
<linearGradient id="paint9_linear_11_1618" x1="205.935" y1="290.619" x2="212.717" y2="355.081" gradientUnits="userSpaceOnUse">
<stop stop-color="#036B52"/>
<stop offset="0.493703" stop-color="#001A13"/>
</linearGradient>
</defs>
</svg>
